<?xml version="1.0" standalone="no"?>
<!DOCTYPE svg PUBLIC "-//W3C//DTD SVG 20010904//EN"
 "http://www.w3.org/TR/2001/REC-SVG-20010904/DTD/svg10.dtd">
<svg version="1.0" xmlns="http://www.w3.org/2000/svg"
 width="1350.000000pt" height="813.000000pt" viewBox="0 0 1350.000000 813.000000"
 preserveAspectRatio="xMidYMid meet">
<metadata>
Created by potrace 1.10, written by Peter Selinger 2001-2011
</metadata>
<g transform="translate(0.000000,813.000000) scale(0.100000,-0.100000)"
fill="#146685" stroke="none">
<path d="M583 5910 c-23 -9 -23 -13 -23 -174 0 -159 1 -165 22 -180 20 -14 93
-16 594 -16 l572 0 21 -34 c21 -33 21 -35 21 -1246 0 -1343 -5 -1254 64 -1278
49 -18 330 -16 365 2 60 31 56 -59 61 1275 4 931 8 1233 17 1253 l12 27 127 3
c87 2 129 7 131 15 6 17 -130 157 -217 223 -103 78 -175 116 -245 129 -73 14
-1489 14 -1522 1z"/>
<path d="M2952 5913 c-28 -5 -55 -44 -46 -67 4 -9 34 -38 69 -64 34 -26 93
-83 131 -127 38 -44 76 -86 84 -93 29 -23 103 -52 135 -52 40 0 137 33 174 59
47 34 64 137 40 239 -16 65 -40 87 -106 101 -53 10 -430 14 -481 4z"/>
<path d="M5355 5351 c-3 -5 -18 -12 -34 -16 -69 -15 -176 -154 -188 -245 -7
-51 15 -185 36 -225 29 -54 111 -133 144 -141 18 -3 38 -11 46 -18 9 -7 55
-11 120 -11 122 1 157 14 227 87 53 55 69 87 89 171 38 158 -40 319 -183 383
-46 20 -71 24 -153 24 -54 0 -100 -4 -104 -9z m187 -188 c52 -47 76 -156 43
-199 -8 -10 -15 -26 -15 -34 0 -17 -30 -40 -75 -56 -35 -13 -78 -2 -112 28
-30 28 -50 146 -32 191 16 41 56 85 83 91 36 7 88 -2 108 -21z"/>
<path d="M10442 5323 c-71 -48 -102 -95 -102 -153 0 -50 25 -113 61 -155 30
-34 93 -75 116 -75 32 0 118 -38 118 -51 0 -41 -124 -30 -213 18 -23 13 -47
23 -52 23 -12 0 -13 -170 -2 -185 4 -5 25 -19 46 -30 33 -17 59 -20 160 -20
108 0 125 2 157 23 83 51 116 140 90 238 -13 49 -81 122 -120 130 -14 3 -41
12 -59 20 -18 8 -39 14 -46 14 -22 0 -51 39 -39 51 16 16 109 5 180 -22 35
-12 66 -20 69 -16 4 4 6 39 6 78 -1 51 -6 77 -18 90 -26 29 -143 59 -226 59
-67 -1 -77 -4 -126 -37z"/>
<path d="M10925 5337 c-13 -21 -15 -68 -13 -328 l3 -304 81 -3 c59 -2 84 1 92
11 8 9 12 110 14 311 l3 298 -24 19 c-17 14 -39 19 -82 19 -50 0 -61 -3 -74
-23z"/>
<path d="M11390 5326 c-74 -40 -131 -98 -160 -164 -16 -35 -20 -67 -20 -152
l0 -108 41 -61 c42 -63 66 -84 136 -120 35 -18 60 -21 152 -21 112 0 146 9
213 54 23 15 26 21 17 38 -8 14 -7 34 1 70 18 72 8 184 -18 210 -17 17 -25 19
-49 10 -20 -6 -35 -6 -47 0 -25 14 -126 5 -137 -13 -5 -8 -8 -36 -7 -64 3 -46
5 -50 36 -59 28 -8 33 -13 30 -35 -4 -35 -33 -38 -97 -10 -63 27 -91 68 -91
133 0 43 4 51 49 95 36 35 60 50 88 54 39 6 120 -4 140 -16 22 -13 44 6 69 60
l26 55 -27 28 c-30 32 -61 39 -190 46 -88 4 -92 3 -155 -30z"/>
<path d="M4660 5331 c-14 -28 -13 -138 3 -148 6 -4 35 -10 62 -13 l50 -5 -3
-218 c-2 -158 0 -222 9 -233 12 -15 134 -20 156 -6 11 7 14 40 13 122 -1 8 1
82 3 164 5 168 9 176 78 176 20 0 42 6 48 13 12 15 12 129 0 149 -6 10 -60 14
-208 16 -189 2 -201 1 -211 -17z"/>
<path d="M5905 5328 c-3 -13 -4 -158 -3 -323 l3 -300 70 -3 c112 -5 110 -6
111 87 0 45 3 83 6 86 2 3 51 13 107 23 84 15 106 23 132 48 40 37 79 118 79
164 0 61 -35 142 -76 177 -54 47 -91 55 -266 60 -157 3 -158 3 -163 -19z m287
-165 c41 -37 9 -103 -51 -103 -20 0 -42 5 -49 12 -15 15 -16 63 -2 89 14 24
76 26 102 2z"/>
<path d="M6516 5334 c-14 -14 -16 -53 -14 -322 l3 -307 81 -3 c98 -3 94 -11
94 165 0 67 4 124 9 127 4 3 32 -21 60 -54 29 -33 58 -60 64 -60 7 0 35 32 62
70 28 38 55 70 61 70 7 0 13 -49 17 -142 4 -103 10 -145 20 -156 19 -19 95
-27 129 -13 l28 10 0 300 c0 165 -3 307 -6 316 -5 11 -22 15 -74 15 -101 0
-112 -7 -172 -110 -29 -49 -57 -90 -61 -90 -10 0 -46 41 -47 52 0 10 -59 99
-83 126 -17 19 -31 22 -88 22 -48 0 -72 -5 -83 -16z"/>
<path d="M7387 5313 c-9 -21 -24 -63 -33 -93 -10 -30 -23 -69 -31 -87 -7 -17
-13 -37 -13 -45 0 -7 -13 -51 -29 -98 -47 -140 -81 -254 -81 -272 0 -15 10
-18 68 -18 79 0 92 7 101 51 l7 34 99 0 100 0 10 -30 c18 -53 22 -55 101 -55
l74 0 0 40 c0 22 -11 66 -24 98 -22 54 -46 127 -82 252 -46 155 -70 224 -87
248 -6 8 -37 12 -87 12 l-77 0 -16 -37z m117 -288 c10 -24 15 -49 11 -55 -8
-13 -45 -13 -65 0 -12 8 -13 13 -2 30 6 11 12 28 12 38 0 19 8 32 20 32 4 0
15 -20 24 -45z"/>
<path d="M7830 5325 c-8 -20 -8 -524 -1 -618 1 -4 40 -6 89 -5 l87 3 0 79 c0
55 4 81 13 84 18 6 68 -52 75 -85 3 -16 17 -41 31 -56 23 -25 30 -27 110 -27
47 0 87 3 89 8 3 4 -6 27 -18 52 -89 173 -87 164 -44 206 74 71 85 165 31 271
-23 45 -37 61 -77 82 -46 24 -61 26 -212 29 l-163 4 -10 -27z m277 -171 c20
-20 24 -32 19 -55 -7 -36 -42 -68 -72 -69 -26 0 -34 17 -34 71 0 79 38 102 87
53z"/>
<path d="M8425 5337 c-3 -7 -4 -152 -3 -322 l3 -310 85 0 85 0 5 120 c3 66 9
119 13 118 5 -1 21 -26 36 -55 15 -29 45 -83 66 -120 l40 -68 98 0 c80 0 97 3
97 15 0 8 -4 15 -8 15 -5 0 -26 34 -48 75 -21 42 -51 98 -65 126 -15 28 -32
56 -38 62 -19 19 -12 61 16 102 26 38 53 85 103 183 33 63 25 72 -68 72 -75 0
-79 -1 -100 -30 -12 -16 -22 -31 -22 -34 0 -3 -12 -24 -27 -48 -16 -24 -34
-52 -41 -63 -7 -11 -15 -28 -18 -37 -4 -10 -12 -18 -19 -18 -12 0 -26 95 -25
176 0 23 -6 34 -26 42 -34 16 -133 16 -139 -1z"/>
<path d="M9339 5341 c-42 -3 -83 -12 -92 -20 -15 -12 -16 -42 -11 -310 3 -163
8 -298 11 -301 2 -3 61 -6 129 -8 127 -4 202 10 245 45 8 7 20 13 25 13 15 0
59 50 78 87 24 47 22 281 -3 342 -23 57 -68 101 -135 134 -58 29 -83 30 -247
18z m188 -195 c25 -22 28 -31 31 -106 4 -74 2 -84 -19 -106 -27 -29 -83 -42
-104 -24 -19 16 -22 229 -3 248 20 20 65 14 95 -12z"/>
<path d="M9858 5301 c-3 -27 -6 -168 -7 -314 -2 -219 0 -266 12 -276 11 -8 68
-11 203 -9 l189 3 3 68 c2 42 -2 74 -9 83 -8 10 -37 14 -105 14 -82 0 -95 2
-104 19 -21 40 -5 48 106 54 58 4 110 10 115 13 12 7 1 125 -13 139 -5 6 -53
10 -106 10 l-97 0 0 35 0 35 110 5 110 5 7 55 c9 68 3 89 -29 101 -13 5 -104
9 -202 9 l-178 0 -5 -49z"/>
<path d="M12775 5339 c-22 -4 -85 -5 -141 -2 -56 3 -113 3 -129 -1 -26 -7 -27
-9 -24 -69 2 -34 7 -68 13 -75 6 -9 33 -13 85 -12 42 1 82 1 89 1 18 -1 15
-24 -5 -42 -22 -19 -109 -128 -145 -182 -15 -22 -38 -52 -51 -66 -21 -24 -23
-32 -18 -101 l6 -75 45 -6 c81 -11 353 -1 362 13 11 18 10 136 -2 143 -5 3
-34 2 -64 -4 -62 -11 -126 -4 -126 14 0 11 176 252 207 283 18 18 18 171 1
176 -35 11 -67 12 -103 5z"/>
<path d="M11877 5333 c-4 -3 -7 -140 -7 -304 0 -296 0 -298 22 -313 24 -17
113 -22 135 -8 9 5 13 50 15 142 2 84 7 135 14 137 6 2 35 -36 64 -84 29 -49
66 -104 82 -124 15 -20 28 -42 28 -48 0 -19 37 -31 94 -31 44 0 57 4 65 19 15
27 3 603 -12 614 -7 4 -41 6 -77 5 l-65 -3 -2 -110 c-2 -60 -6 -121 -9 -135
l-6 -25 -19 25 c-30 38 -119 172 -119 179 0 4 -13 21 -29 39 -28 30 -34 32
-99 32 -38 0 -72 -3 -75 -7z"/>
<path d="M894 5097 l-29 -25 -3 -1389 c-1 -763 0 -1403 3 -1421 12 -67 -4 -66
765 -58 377 3 714 11 750 16 129 19 300 58 314 71 6 5 16 9 24 9 22 0 289 123
302 140 3 3 23 17 45 30 22 13 42 27 45 30 3 3 32 27 65 52 71 54 228 215 270
278 16 25 32 47 36 50 22 20 169 304 169 328 0 5 7 23 15 38 8 16 15 37 15 46
0 9 4 19 9 22 5 4 12 25 16 49 4 23 11 47 15 52 11 14 36 135 71 345 14 84 14
516 0 600 -10 60 -21 118 -51 260 -7 30 -15 60 -20 65 -4 6 -11 26 -15 45 -4
19 -11 40 -15 45 -4 6 -11 21 -15 35 -25 83 -125 261 -160 284 -20 13 -63 16
-266 16 -219 0 -243 -2 -255 -17 -7 -10 -14 -22 -14 -27 0 -4 31 -39 69 -76
38 -37 81 -87 97 -111 42 -66 94 -171 94 -189 0 -9 4 -20 9 -25 16 -18 55
-182 79 -335 22 -142 22 -501 0 -655 -21 -141 -54 -276 -84 -342 -8 -17 -14
-34 -14 -37 0 -3 -15 -36 -33 -73 -102 -211 -284 -400 -492 -511 -62 -32 -132
-62 -149 -62 -8 0 -17 -4 -20 -9 -3 -5 -23 -12 -43 -15 -21 -4 -49 -11 -63
-15 -91 -32 -215 -41 -613 -46 -230 -2 -418 0 -431 5 -13 5 -36 25 -52 45
l-27 36 -1 1204 -1 1205 -28 27 c-27 28 -27 28 -191 31 -162 4 -163 3 -192
-21z"/>
<path d="M10328 4423 c-58 -66 -147 -315 -179 -501 -11 -63 -10 -75 2 -83 21
-13 29 -11 35 9 21 62 41 102 51 102 7 0 20 -15 29 -32 34 -68 90 -148 112
-160 17 -9 28 -9 40 -1 26 16 27 43 2 43 -29 0 -75 53 -110 128 -36 74 -37 93
-8 132 29 39 49 40 42 1 -8 -36 11 -49 37 -25 21 19 25 64 7 82 -20 20 -58 13
-83 -15 -13 -16 -25 -32 -25 -36 0 -10 -41 -46 -52 -47 -20 -1 -1 93 37 185
43 107 81 169 113 188 32 19 33 21 16 34 -24 18 -48 16 -66 -4z"/>
<path d="M11569 4418 c-19 -21 -89 -155 -89 -172 0 -5 -6 -22 -13 -39 -33 -77
-77 -256 -77 -312 0 -60 24 -61 51 0 11 24 24 47 29 50 12 8 13 45 1 45 -32 0
-8 114 54 255 7 17 16 37 19 45 23 54 68 110 87 110 23 0 25 25 3 34 -27 10
-43 7 -65 -16z"/>
<path d="M7428 4331 c-14 -12 -33 -21 -42 -21 -9 0 -16 -8 -16 -19 0 -11 -7
-26 -15 -35 -8 -8 -15 -19 -15 -24 0 -6 -5 -12 -11 -14 -7 -2 -10 -9 -8 -16 2
-6 37 15 82 49 98 77 109 73 91 -33 -21 -127 -76 -248 -142 -315 -53 -53 -102
-59 -141 -18 -21 23 -23 32 -19 103 3 66 9 89 46 165 25 51 60 104 83 127 41
39 44 60 9 60 -27 0 -97 -85 -132 -160 -32 -67 -68 -187 -68 -228 0 -37 32
-83 62 -89 15 -3 33 -12 39 -19 17 -20 98 -18 131 4 47 31 100 110 135 202 56
147 71 238 44 270 -26 30 -81 35 -113 11z"/>
<path d="M5965 4331 c-8 -14 -72 -42 -150 -66 -33 -11 -69 -27 -79 -37 -19
-17 -19 -18 0 -57 23 -49 42 -52 46 -9 2 26 12 37 48 59 25 15 51 28 58 28 16
1 15 -30 -2 -71 -24 -57 -46 -143 -46 -181 0 -29 7 -41 37 -66 21 -17 45 -31
54 -31 17 0 82 65 114 113 9 15 21 27 26 27 14 0 11 -45 -6 -79 -8 -17 -22
-45 -30 -62 -8 -17 -15 -36 -15 -42 -1 -28 -39 -57 -74 -57 -43 0 -56 -17 -23
-29 14 -6 28 -15 32 -20 12 -20 59 -12 75 12 20 31 53 121 96 267 35 118 53
167 78 211 23 41 24 48 11 59 -18 15 -45 6 -45 -14 0 -13 -39 -89 -70 -136 -6
-8 -13 -22 -17 -30 -3 -8 -12 -19 -20 -23 -7 -4 -13 -14 -13 -21 0 -20 -113
-136 -132 -136 -9 0 -19 9 -23 20 -18 58 51 285 95 312 25 16 25 30 1 52 -12
11 -21 14 -26 7z"/>
<path d="M9263 4323 c-30 -27 -46 -60 -32 -69 7 -4 17 0 24 9 27 37 90 4 135
-69 24 -37 26 -97 5 -114 -8 -7 -15 -19 -15 -26 0 -27 -65 -137 -92 -157 -37
-27 -38 -67 -3 -67 14 0 28 6 31 14 3 8 17 17 30 20 21 6 25 12 23 39 -1 18 6
50 16 72 11 22 21 51 25 65 8 37 45 39 58 3 6 -15 20 -53 31 -83 12 -30 21
-70 21 -88 0 -36 21 -52 45 -32 8 7 15 24 15 39 0 14 7 37 15 51 8 14 19 37
26 53 6 15 15 27 20 27 5 0 9 6 9 13 0 8 13 32 28 53 16 21 31 47 35 57 8 22
27 13 27 -14 0 -10 -6 -45 -14 -77 -30 -121 -35 -165 -19 -189 32 -48 63 -16
64 64 0 26 0 68 0 93 -1 73 43 208 87 268 26 36 23 62 -6 62 -18 0 -52 -29
-52 -44 0 -4 -27 -43 -60 -86 -33 -43 -60 -84 -60 -89 0 -6 -5 -11 -10 -11 -6
0 -15 -10 -20 -22 -6 -13 -19 -36 -30 -53 -11 -16 -24 -41 -30 -54 -10 -23
-11 -23 -30 -6 -11 10 -22 27 -26 39 -3 11 -19 49 -36 83 -31 65 -33 88 -8
149 17 39 7 72 -15 54 -8 -7 -15 -20 -15 -30 0 -10 -7 -24 -16 -31 -14 -11
-19 -9 -38 16 -34 48 -79 85 -102 85 -11 0 -30 -8 -41 -17z"/>
<path d="M11384 4330 c-6 -6 -42 -13 -80 -15 -38 -2 -96 -10 -129 -19 -32 -9
-67 -16 -77 -16 -11 0 -37 -9 -58 -20 -36 -19 -40 -24 -40 -59 0 -22 6 -46 13
-53 7 -7 16 -22 20 -32 6 -15 11 -16 19 -8 9 9 7 16 -6 31 -17 19 -17 21 -1
49 19 32 82 59 150 64 47 4 55 -14 32 -71 -24 -61 -38 -104 -48 -147 -7 -28
-18 -45 -33 -52 -19 -8 -24 -21 -30 -71 -7 -64 -4 -81 18 -81 21 0 39 27 47
73 4 23 17 74 29 112 11 39 25 84 30 100 22 75 43 125 58 138 10 9 49 19 87
24 66 7 70 10 70 33 0 20 -5 26 -30 28 -17 2 -35 -2 -41 -8z"/>
<path d="M8395 4234 c-18 -19 -22 -31 -15 -38 14 -14 65 17 65 40 0 28 -23 27
-50 -2z"/>
<path d="M7937 4232 c-22 -24 -22 -42 1 -42 20 1 62 33 62 49 0 18 -46 13 -63
-7z"/>
<path d="M7659 4203 c-26 -32 -46 -77 -78 -173 -61 -183 -83 -268 -102 -398
-10 -75 -10 -84 6 -102 25 -28 35 -16 35 44 0 58 29 205 55 274 22 63 75 162
86 162 5 0 9 4 9 10 0 18 72 81 87 76 12 -5 13 -17 7 -63 -9 -77 -39 -141 -75
-161 -35 -21 -33 -36 7 -40 25 -3 33 3 59 44 32 51 65 143 65 185 0 32 -38 69
-71 69 -18 0 -34 -12 -55 -40 -29 -40 -54 -52 -54 -26 0 18 38 84 62 108 22
22 23 34 2 42 -24 9 -30 8 -45 -11z"/>
<path d="M11837 4139 c-9 -6 -22 -7 -28 -4 -36 23 -119 -132 -119 -223 0 -48
27 -81 67 -82 24 0 121 102 102 109 -6 2 -14 -1 -18 -6 -3 -4 -25 -23 -49 -42
-56 -43 -77 -37 -68 21 8 51 32 81 58 72 10 -3 33 4 53 16 34 21 35 24 35 80
0 63 -6 74 -33 59z m1 -61 c2 -8 -2 -27 -7 -41 -8 -21 -17 -27 -41 -27 -34 0
-37 10 -13 48 29 44 55 53 61 20z"/>
<path d="M6908 4129 c-10 -5 -18 -16 -18 -23 0 -8 -7 -16 -15 -20 -8 -3 -15
-15 -15 -27 0 -12 -5 -19 -12 -16 -14 4 -15 31 -3 59 5 12 2 20 -10 24 -27 11
-52 -31 -59 -98 -4 -32 -14 -74 -22 -94 -21 -49 -15 -88 13 -92 17 -3 24 3 29
25 12 53 63 164 82 176 6 4 12 17 12 28 0 32 25 17 28 -17 7 -61 32 -48 45 23
4 22 2 37 -9 48 -18 17 -23 18 -46 4z"/>
<path d="M8750 4124 c-9 -10 -9 -18 -2 -26 13 -16 0 -94 -27 -168 -27 -69 -26
-82 0 -78 15 2 32 25 58 73 20 39 42 74 49 78 6 4 12 12 12 17 0 5 16 26 36
46 46 45 61 35 44 -33 -6 -26 -15 -65 -19 -86 -5 -21 -14 -44 -20 -50 -6 -6
-11 -24 -11 -40 0 -44 27 -31 61 30 23 42 30 67 33 130 4 87 -4 113 -37 113
-24 0 -87 -57 -87 -78 0 -7 -6 -12 -14 -12 -10 0 -16 13 -18 41 -2 32 -8 44
-25 50 -15 5 -25 3 -33 -7z"/>
<path d="M9937 4101 c-44 -41 -102 -143 -112 -198 -7 -37 9 -73 31 -73 18 0
124 102 124 119 0 19 -11 12 -59 -39 -26 -28 -50 -47 -54 -44 -35 35 92 234
149 234 33 0 31 -25 -6 -80 -27 -41 -28 -46 -13 -62 11 -12 14 -27 9 -53 -8
-39 0 -75 14 -75 20 0 47 76 47 130 0 33 7 69 17 89 21 39 15 61 -16 61 -13 1
-34 7 -48 15 -35 20 -35 20 -83 -24z"/>
<path d="M10493 4103 c-41 -54 -60 -99 -68 -166 -7 -52 -5 -61 16 -83 39 -42
62 -33 142 54 16 18 23 33 17 37 -6 3 -13 -1 -16 -9 -3 -9 -12 -16 -19 -16 -7
0 -15 -7 -19 -15 -3 -8 -12 -15 -19 -15 -8 0 -20 -7 -27 -15 -25 -30 -40 -18
-40 33 0 61 8 72 55 76 66 5 113 78 89 140 -4 11 -19 16 -44 16 -32 0 -43 -6
-67 -37z m73 -18 c7 -17 -14 -75 -26 -75 -5 0 -15 -3 -24 -6 -26 -10 -30 23
-6 61 23 37 47 45 56 20z"/>
<path d="M6231 4080 c-17 -28 -31 -56 -31 -64 0 -7 -7 -30 -15 -49 -8 -20 -15
-47 -15 -60 0 -35 39 -66 92 -73 44 -6 46 -5 78 35 61 75 90 209 54 245 -10
11 -34 16 -74 16 l-58 0 -31 -50z m142 -10 c-8 -82 -58 -190 -97 -209 -39 -18
-51 -2 -49 62 3 98 61 179 123 174 20 -2 25 -7 23 -27z"/>
<path d="M6670 4115 c-6 -8 -20 -29 -29 -47 -44 -83 -57 -104 -68 -111 -7 -4
-13 -14 -13 -21 0 -8 -7 -16 -15 -20 -8 -3 -15 -12 -15 -21 0 -16 -25 -21 -34
-7 -8 14 10 101 33 161 21 55 20 71 -4 71 -18 0 -55 -65 -55 -99 0 -15 -5 -53
-11 -85 -20 -98 22 -141 72 -75 13 17 32 40 42 50 9 11 17 24 17 29 0 6 4 10
9 10 18 0 21 -18 10 -44 -14 -29 2 -81 22 -74 16 5 38 75 32 99 -6 22 23 126
38 135 5 3 9 18 9 35 0 32 -19 39 -40 14z"/>
<path d="M7884 4118 c-4 -6 -2 -14 4 -16 7 -2 12 -12 12 -22 0 -25 -26 -123
-46 -177 -16 -41 -14 -73 5 -73 17 0 53 74 62 125 4 28 12 68 17 91 5 22 5 50
1 62 -9 24 -43 30 -55 10z"/>
<path d="M8030 4117 c0 -7 5 -18 10 -23 12 -12 -1 -82 -27 -145 -20 -48 -22
-104 -4 -104 7 0 23 18 35 40 53 99 88 155 97 155 5 0 9 5 9 10 0 16 40 51 50
45 22 -14 0 -134 -38 -212 -17 -35 -8 -58 19 -48 22 8 72 119 65 143 -4 11 -2
40 5 65 22 90 -33 118 -96 50 -19 -21 -35 -41 -35 -45 0 -5 -7 -8 -15 -8 -11
0 -15 12 -15 45 0 43 -1 45 -30 45 -18 0 -30 -5 -30 -13z"/>
<path d="M8340 4117 c0 -7 5 -18 12 -25 11 -11 -5 -86 -37 -172 -23 -60 -26
-78 -14 -86 22 -13 69 63 75 121 1 17 8 56 14 88 7 31 9 64 6 72 -7 18 -56 20
-56 2z"/>
<path d="M8503 4102 c-34 -51 -54 -107 -60 -167 -5 -52 -3 -62 15 -78 11 -10
39 -21 62 -24 36 -5 45 -2 71 23 39 38 66 100 75 173 9 87 -1 100 -80 100 -59
0 -66 -3 -83 -27z m125 -55 c-5 -63 -54 -167 -87 -183 -62 -31 -78 20 -40 133
23 66 59 100 108 102 22 1 23 -2 19 -52z"/>
<path d="M10693 4110 c-27 -22 -30 -67 -7 -111 9 -18 14 -49 12 -77 l-3 -47
-48 -10 c-58 -12 -62 -29 -7 -33 34 -3 46 2 75 30 41 38 43 55 14 150 -16 55
-18 72 -8 84 20 24 -3 35 -28 14z"/>
<path d="M10757 4123 c-2 -5 0 -24 5 -43 l10 -34 19 24 c27 36 25 60 -5 60
-14 0 -27 -3 -29 -7z"/>
<path d="M11526 4078 c-43 -50 -59 -88 -36 -88 6 0 15 11 20 25 5 14 14 25 20
25 5 0 10 5 10 10 0 13 37 50 50 50 25 0 3 -125 -36 -203 -38 -77 9 -95 51
-19 20 35 28 64 30 114 2 37 6 71 9 76 3 6 2 22 -4 36 -7 20 -17 26 -38 26
-22 0 -40 -12 -76 -52z"/>
<path d="M7610 3420 c-5 -10 -33 -30 -60 -44 -62 -31 -118 -73 -131 -97 -7
-14 -5 -28 6 -49 18 -34 35 -31 35 5 0 27 80 95 112 95 16 0 18 -5 12 -37 -4
-21 -13 -50 -20 -65 -8 -15 -14 -35 -14 -46 0 -10 -7 -27 -15 -38 -8 -10 -15
-27 -15 -37 0 -11 -12 -22 -29 -28 -22 -8 -30 -18 -34 -42 -3 -18 -8 -42 -12
-54 -6 -20 -4 -23 18 -23 14 0 28 7 31 16 5 13 12 10 36 -16 l30 -32 94 4
c108 3 143 21 162 79 16 46 1 81 -46 114 -47 33 -58 63 -26 75 37 14 74 72 82
129 6 48 5 54 -22 82 -21 22 -37 29 -67 29 -21 0 -48 -5 -59 -11 -14 -8 -23
-8 -31 0 -16 16 -25 14 -37 -9z m161 -30 c26 -14 24 -51 -6 -108 -41 -78 -46
-82 -109 -82 l-57 0 7 38 c4 20 13 49 20 64 8 15 14 36 14 47 0 14 9 22 28 27
15 3 38 10 52 14 14 5 26 9 28 9 2 1 12 -4 23 -9z m-103 -254 c74 -47 125
-100 120 -124 -7 -36 -155 -57 -194 -27 -10 8 -31 15 -46 15 -16 0 -28 4 -28
10 0 16 69 170 76 170 2 0 34 -20 72 -44z"/>
<path d="M8847 3433 c-16 -3 -31 -11 -34 -19 -3 -8 -31 -31 -62 -51 -82 -52
-151 -112 -151 -131 1 -10 12 -30 25 -47 20 -24 25 -26 30 -13 4 9 6 22 4 29
-1 8 -1 19 0 26 1 14 100 88 107 80 6 -5 -6 -49 -32 -117 -7 -19 -16 -49 -19
-66 -3 -18 -19 -46 -36 -65 -40 -45 -39 -119 1 -119 24 0 29 9 40 68 4 26 13
63 20 82 21 62 32 94 40 125 37 127 55 150 138 179 l53 18 25 -23 c13 -12 24
-30 24 -39 0 -58 -93 -270 -143 -327 -25 -28 -36 -33 -72 -33 -61 0 -64 -15
-9 -40 42 -18 49 -19 70 -6 24 17 94 98 94 111 0 5 6 16 14 24 26 31 77 177
83 237 l6 62 -43 31 c-44 31 -85 37 -173 24z"/>
<path d="M8408 3398 c-16 -26 -44 -92 -53 -126 -4 -12 -18 -30 -31 -39 -23
-14 -23 -17 -9 -33 14 -16 14 -22 2 -56 -8 -22 -20 -70 -27 -107 -11 -61 -11
-70 5 -87 10 -11 22 -20 26 -20 13 0 59 54 59 69 0 11 -4 10 -13 -4 -34 -46
-49 24 -22 105 8 25 17 57 20 73 4 20 11 27 29 27 33 0 57 10 50 21 -3 5 -14
9 -24 9 -28 0 -33 17 -16 52 9 17 16 37 16 44 0 7 14 26 30 43 29 29 30 30 11
41 -28 15 -37 13 -53 -12z"/>
<path d="M9548 3336 c-15 -34 -6 -42 32 -26 36 15 37 43 2 48 -15 2 -25 -4
-34 -22z"/>
<path d="M7966 3235 c-36 -28 -81 -124 -90 -191 -7 -56 -1 -84 19 -84 7 0 15
-7 19 -15 9 -25 31 -17 85 33 70 65 64 82 -10 27 -34 -25 -65 -42 -70 -39 -16
10 -10 93 9 112 9 9 18 29 18 43 2 36 32 79 55 79 33 0 19 -64 -21 -97 -31
-25 12 -14 47 13 32 24 34 29 31 77 -3 52 -3 52 -38 54 -19 2 -43 -4 -54 -12z"/>
<path d="M9168 3242 c-17 -7 -49 -45 -61 -72 -4 -8 -11 -22 -16 -30 -13 -24
-41 -116 -41 -138 0 -18 58 -72 77 -72 10 0 103 93 103 103 0 13 -17 7 -42
-15 -90 -82 -114 -57 -69 71 32 92 65 138 77 108 11 -30 -5 -83 -29 -95 -17
-8 -18 -11 -5 -11 9 -1 20 4 23 9 3 6 15 10 25 10 15 0 20 10 26 45 12 83 -9
111 -68 87z"/>
<path d="M9410 3224 c-13 -32 -7 -54 15 -54 10 0 15 10 15 34 0 44 -17 55 -30
20z"/>
<path d="M9688 3216 c-18 -19 -40 -49 -49 -68 -61 -125 -64 -163 -19 -196 16
-12 33 -22 37 -22 12 0 83 83 83 98 0 6 7 12 15 12 20 0 19 -24 -5 -95 -43
-126 -77 -192 -120 -235 -52 -52 -85 -57 -151 -26 -29 15 -54 26 -56 26 -2 0
4 -11 13 -25 9 -14 22 -25 29 -25 7 0 18 -7 25 -15 8 -10 31 -15 70 -15 57 0
59 1 102 48 76 85 116 188 182 466 10 42 13 73 7 79 -17 17 -45 2 -52 -28 -12
-52 -54 -133 -76 -148 -7 -4 -13 -14 -13 -21 0 -18 -43 -56 -63 -56 -21 0 -22
27 -1 88 26 80 67 130 119 147 19 6 19 7 -4 26 -31 25 -35 25 -73 -15z"/>
<path d="M8220 3225 c-7 -9 -10 -25 -6 -41 7 -25 8 -26 26 -9 23 21 27 65 6
65 -7 0 -19 -7 -26 -15z"/>
<path d="M9940 3230 c-13 -8 -13 -13 -2 -31 11 -17 11 -30 -3 -77 -9 -32 -23
-72 -31 -90 -36 -84 2 -113 44 -32 13 25 32 58 44 74 19 27 20 31 6 54 -12 19
-13 31 -5 52 17 44 -15 74 -53 50z"/>
<path d="M10055 3198 c-40 -38 -57 -68 -39 -68 10 0 54 50 54 61 0 6 8 9 18 7
14 -3 16 -13 13 -63 -2 -33 -9 -72 -17 -86 -7 -15 -16 -45 -20 -68 -5 -34 -4
-41 10 -41 9 0 21 10 27 23 5 12 17 36 27 52 9 17 17 48 18 70 1 22 5 61 9 87
7 45 6 48 -19 58 -36 13 -31 15 -81 -32z"/>
<path d="M8143 3211 c-27 -22 -30 -59 -8 -100 8 -16 16 -48 17 -72 3 -46 -5
-55 -77 -80 -23 -8 -26 -12 -15 -19 31 -20 65 -10 109 31 46 44 46 37 16 139
-9 31 -13 69 -10 88 7 36 0 39 -32 13z"/>
<path d="M9332 3214 c-28 -19 -28 -51 0 -137 l22 -69 -24 -18 c-14 -10 -40
-21 -58 -25 -40 -7 -38 -29 4 -33 23 -2 39 6 73 37 41 38 43 41 36 82 -4 23
-14 57 -21 75 -18 44 -18 70 2 78 8 3 12 10 9 16 -8 14 -17 13 -43 -6z"/>
<path d="M9495 3220 c-4 -6 -2 -17 5 -25 14 -17 1 -93 -30 -175 -24 -65 -25
-80 -5 -80 23 0 65 75 65 115 0 19 7 52 16 74 23 57 16 95 -18 99 -14 2 -29
-2 -33 -8z"/>
</g>
</svg>
