 <svg  version="1.0" xmlns="http://www.w3.org/2000/svg"  width="450.000000pt" height="450.000000pt" viewBox="0 0 450.000000 450.000000"  preserveAspectRatio="xMidYMid meet">  <g transform="translate(0.000000,450.000000) scale(0.100000,-0.100000)" fill="#136684" stroke="none"> <path d="M427 4333 c-13 -12 -8 -378 5 -391 9 -9 169 -12 658 -12 689 0 659 2 694 -50 15 -22 16 -138 16 -1375 0 -894 4 -1363 10 -1387 6 -20 22 -46 37 -58 24 -19 39 -20 230 -20 175 0 207 2 230 17 55 37 53 -29 53 1443 0 1161 2 1366 14 1395 l15 34 153 3 153 3 -130 130 c-134 135 -235 211 -334 251 l-56 24 -871 0 c-479 0 -874 -3 -877 -7z"/> <path d="M3076 4324 c-32 -31 -12 -93 38 -116 48 -24 90 -62 182 -170 102 -117 141 -141 234 -142 81 -1 180 34 215 76 31 37 39 80 32 184 -6 97 -26 140 -77 166 -31 16 -69 18 -322 18 -247 0 -289 -2 -302 -16z"/> <path d="M803 3440 c-22 -13 -35 -31 -43 -58 -7 -28 -9 -527 -8 -1607 l3 -1567 29 -25 30 -25 780 5 c810 5 872 8 1061 51 209 48 465 162 635 283 145 104 320 284 416 428 137 206 226 411 294 679 53 210 71 349 77 582 6 226 -5 373 -43 563 -57 286 -213 649 -292 679 -16 7 -138 12 -300 14 l-274 3 -19 -24 c-10 -13 -19 -27 -19 -32 0 -5 44 -53 98 -107 87 -86 104 -109 150 -202 103 -210 160 -478 169 -795 14 -493 -69 -846 -266 -1139 -179 -265 -478 -456 -819 -525 -163 -33 -334 -42 -739 -39 l-381 3 -27 25 c-15 14 -32 36 -38 50 -7 17 -11 429 -12 1360 -1 1486 3 1397 -67 1418 -18 6 -107 13 -198 16 -152 6 -167 5 -197 -14z"/> </g> </svg> 