<?xml version="1.0" encoding="iso-8859-1"?>
<!-- Uploaded to: SVG Repo, www.svgrepo.com, Generator: SVG Repo Mixer Tools -->
<svg version="1.1" id="Layer_1" xmlns="http://www.w3.org/2000/svg" xmlns:xlink="http://www.w3.org/1999/xlink" 
	 viewBox="0 0 512 512" xml:space="preserve">
<path style="fill:#55B0CC;" d="M512,486.4c0,14.136-11.464,25.6-25.6,25.6H25.6C11.464,512,0,500.536,0,486.4V40.96
	c0-14.136,11.464-25.6,25.6-25.6h460.8c14.136,0,25.6,11.464,25.6,25.6V486.4z"/>
<path style="fill:#AAEBFF;" d="M512,471.04c0,14.136-11.464,25.6-25.6,25.6H25.6c-14.136,0-25.6-11.464-25.6-25.6V25.6
	C0,11.464,11.464,0,25.6,0h460.8C500.536,0,512,11.464,512,25.6V471.04z"/>
<path style="fill:#61C8E8;" d="M512,471.04V249.006h-0.348v-2.642L384.963,119.68h-3.108H352.22h-0.84
	c-0.497-0.502-45.517-45.455-46.423-46.316C292.536,60.262,275.098,51.942,256,51.942c-36.874,0-67.738,30.868-67.738,67.738
	h-14.013h-29.686h-17.531v309.663l68.628,67.297H486.4C500.536,496.64,512,485.176,512,471.04z"/>
<rect x="127.037" y="119.68" style="fill:#39AEC0;" width="257.946" height="309.658"/>
<polygon style="fill:#D5CFB5;" points="131.512,429.338 161.198,429.338 384.963,205.578 384.963,175.892 "/>
<g>
	<polygon style="fill:#339EAE;" points="190.838,429.338 220.524,429.338 384.963,264.899 384.963,235.213 	"/>
	<polygon style="fill:#339EAE;" points="309.478,429.338 339.164,429.338 384.963,383.544 384.963,353.859 	"/>
</g>
<g>
	<polygon style="fill:#D5CFB5;" points="384.963,429.338 384.963,413.179 368.804,429.338 	"/>
	<polygon style="fill:#D5CFB5;" points="250.158,429.338 279.844,429.338 384.963,324.219 384.963,294.533 	"/>
</g>
<polygon style="fill:#339EAE;" points="381.855,119.68 127.037,374.497 127.037,404.183 384.963,146.253 384.963,119.68 "/>
<polygon style="fill:#D5CFB5;" points="127.037,196.531 127.037,226.217 233.574,119.68 203.889,119.68 "/>
<g>
	<polygon style="fill:#339EAE;" points="127.037,137.206 127.037,166.892 174.254,119.68 144.568,119.68 	"/>
	<polygon style="fill:#339EAE;" points="127.037,255.852 127.037,285.537 292.895,119.68 263.209,119.68 	"/>
</g>
<polygon style="fill:#D5CFB5;" points="127.037,315.172 127.037,344.858 352.22,119.68 322.534,119.68 "/>
<g>
	<polygon style="fill:#F15B00;" points="131.512,429.338 161.198,429.338 384.963,205.578 384.963,175.892 	"/>
	<polygon style="fill:#F15B00;" points="384.963,429.338 384.963,413.179 368.804,429.338 	"/>
	<polygon style="fill:#F15B00;" points="250.158,429.338 279.844,429.338 384.963,324.219 384.963,294.533 	"/>
	<polygon style="fill:#F15B00;" points="127.037,196.531 127.037,226.217 233.574,119.68 203.889,119.68 	"/>
	<polygon style="fill:#F15B00;" points="127.037,315.172 127.037,344.858 352.22,119.68 322.534,119.68 	"/>
</g>
<path style="fill:#AAEBFF;" d="M320.543,159.549c-5.381,0-9.743,4.362-9.743,9.743c0,5.381,4.362,9.743,9.743,9.743
	c5.381,0,9.743-4.362,9.743-9.743C330.286,163.912,325.924,159.549,320.543,159.549z M191.457,159.549
	c-5.381,0-9.743,4.362-9.743,9.743c0,5.381,4.362,9.743,9.743,9.743c5.381,0,9.743-4.362,9.743-9.743
	C201.201,163.912,196.838,159.549,191.457,159.549z"/>
<path style="fill:#BD221F;" d="M320.543,172.483c-1.766,0-3.195-1.428-3.195-3.195v-49.613c0-33.828-27.52-61.348-61.348-61.348
	s-61.348,27.52-61.348,61.348v49.613c0,1.766-1.428,3.195-3.195,3.195s-3.195-1.428-3.195-3.195v-49.613
	c0-37.35,30.387-67.738,67.738-67.738s67.738,30.387,67.738,67.738v49.613C323.738,171.054,322.309,172.483,320.543,172.483z"/>
</svg>