<?xml version="1.0" encoding="utf-8"?>
<!-- Uploaded to: SVG Repo, www.svgrepo.com, Generator: SVG Repo Mixer Tools -->
<svg width="800px" height="800px" viewBox="0 0 1024 1024" class="icon"  version="1.1" xmlns="http://www.w3.org/2000/svg"><path d="M744 632c0-107.84 3.36-154.4 7.36-166 0-1.36 0.64-2 0.64-2l152-56s-28.88-128-40-184c-6.32-32-26.56-58.4-53.36-80A322.96 322.96 0 0 0 640 80H384a322.96 322.96 0 0 0-170.64 64c-26.8 21.6-47.04 48-53.36 80-11.12 56-40 184-40 184l152 56s0 0.64 0.64 2c4 11.6 7.36 58.16 7.36 166a1151.36 1151.36 0 0 1-32.64 256 248.8 248.8 0 0 0-7.36 56h544a248.8 248.8 0 0 0-7.36-56A1151.36 1151.36 0 0 1 744 632z" fill="#E455AF" /><path d="M280 464l-7.36 2C272 464.64 272 464 272 464l-152-56s28.88-128 40-184c6.32-32 26.56-58.4 53.36-80C265.84 235.84 280 368.48 280 464z" fill="#E455AF" /><path d="M384 80c0 88 57.36 160 128 160s128-71.52 128-160z" fill="#A93882" /><path d="M744 464l7.36 2c0-1.36 0.64-2 0.64-2l152-56s-28.88-128-40-184c-6.32-32-26.56-58.4-53.36-80C758.16 235.84 744 368.48 744 464z" fill="#E455AF" /></svg>