<?xml version="1.0" encoding="iso-8859-1"?>
<!-- Uploaded to: SVG Repo, www.svgrepo.com, Generator: SVG Repo Mixer Tools -->
<svg height="800px" width="800px" version="1.1" id="Layer_1" xmlns="http://www.w3.org/2000/svg" xmlns:xlink="http://www.w3.org/1999/xlink" 
	 viewBox="0 0 504.123 504.123" xml:space="preserve">
<g>
	<path style="fill:#229666;" d="M156.625,131.962h-8.476v-22.41c0-11.059,8.995-20.055,20.047-20.055h51.397v8.491h-51.397
		c-6.388,0-11.571,5.183-11.571,11.563V131.962z"/>
	<path style="fill:#229666;" d="M343.418,136.917c0,9.374-7.609,16.983-16.975,16.983h-86.347c-9.358,0-16.983-7.609-16.983-16.983
		V97.296c0-9.374,7.625-16.983,16.983-16.983h86.339c9.366,0,16.975,7.609,16.975,16.983v39.621H343.418z"/>
</g>
<path style="fill:#3EBA64;" d="M276.023,136.917V97.296c0-9.374-7.609-16.983-16.975-16.983h-18.944
	c-9.358,0-16.983,7.609-16.983,16.983v39.621c0,9.374,7.625,16.983,16.983,16.983h18.944
	C268.414,153.899,276.023,146.29,276.023,136.917z"/>
<path style="fill:#112D3F;" d="M366.946,493.143c0,6.073-4.907,10.98-10.98,10.98h-145.4c-6.073,0-10.98-4.907-10.98-10.98V111.797
	c0-6.073,4.907-10.98,10.98-10.98h145.4c6.073,0,10.98,4.907,10.98,10.98L366.946,493.143L366.946,493.143z"/>
<path style="fill:#134D70;" d="M283.451,493.143V111.797c0-6.073-4.899-10.98-10.973-10.98h-61.913
	c-6.073,0-10.98,4.907-10.98,10.98v381.345c0,6.073,4.907,10.98,10.98,10.98h61.913
	C278.552,504.123,283.451,499.216,283.451,493.143z"/>
<path style="fill:#A8C1B6;" d="M365.529,67.954c0,10.531-8.539,19.078-19.078,19.078H220.081c-10.524,0-19.07-8.546-19.07-19.078
	V19.07c0-10.531,8.546-19.07,19.07-19.07h126.369c10.539,0,19.078,8.539,19.078,19.07L365.529,67.954L365.529,67.954z"/>
<path style="fill:#B8CCC2;" d="M346.451,0H220.081c-10.524,0-19.07,8.539-19.07,19.07v26.955c0,10.531,8.546,19.078,19.07,19.078
	h126.369c10.539,0,19.078-8.546,19.078-19.078V19.07C365.529,8.539,356.99,0,346.451,0z"/>
<g>
	<path style="fill:#CCDBD3;" d="M346.451,0H220.081c-10.524,0-19.07,8.539-19.07,19.07v26.955"/>
</g>
<g>
	<path style="fill:#B8CCC2;" d="M160.169,135.491c0,4.687-3.805,8.491-8.499,8.491l0,0c-4.679,0-8.483-3.805-8.483-8.491v-15.565
		c0-4.695,3.805-8.491,8.483-8.491l0,0c4.695,0,8.499,3.797,8.499,8.491V135.491z"/>
	<path style="fill:#B8CCC2;" d="M151.67,348.459c-7.987,0-14.494-6.514-14.494-14.509V150.701c0-7.995,6.506-14.501,14.494-14.501
		c8.003,0,14.509,6.506,14.509,14.501v183.257C166.179,341.945,159.673,348.459,151.67,348.459z M151.67,144.683
		c-3.308,0-6.01,2.702-6.01,6.018v183.257c0,3.324,2.702,6.018,6.01,6.018c3.324,0,6.018-2.694,6.018-6.018V150.701
		C157.688,147.385,154.994,144.683,151.67,144.683z"/>
</g>
<g>
	<path style="fill:#156289;" d="M244.358,272.77c0,5.86-4.758,10.61-10.618,10.61l0,0c-5.86,0-10.618-4.75-10.618-10.61V127.008
		c0-5.86,4.758-10.618,10.618-10.618l0,0c5.86,0,10.618,4.758,10.618,10.618V272.77z"/>
	<path style="fill:#156289;" d="M244.358,359.085c0,5.868-4.758,10.618-10.618,10.618l0,0c-5.86,0-10.618-4.75-10.618-10.618
		v-43.867c0-5.86,4.758-10.61,10.618-10.61l0,0c5.86,0,10.618,4.75,10.618,10.61V359.085z"/>
	<path style="fill:#156289;" d="M244.358,438.327c0,5.86-4.758,10.618-10.618,10.618l0,0c-5.86,0-10.618-4.758-10.618-10.618
		v-43.867c0-5.86,4.758-10.618,10.618-10.618l0,0c5.86,0,10.618,4.758,10.618,10.618V438.327z"/>
</g>
</svg>