<?xml version="1.0" encoding="iso-8859-1"?>
<!-- Uploaded to: SVG Repo, www.svgrepo.com, Generator: SVG Repo Mixer Tools -->
<svg xmlns="http://www.w3.org/2000/svg" xmlns:xlink="http://www.w3.org/1999/xlink" version="1.1" id="Layer_1"  viewBox="0 0 396.687 396.687" xml:space="preserve" width="512" height="512">
<g>
	<rect x="186.676" y="11.833" style="fill:#00B3E3;" width="23.334" height="38"/>
	<path style="fill:#00416A;" d="M218.023,15h-39.358c-4.142,0-7.5-3.358-7.5-7.5s3.358-7.5,7.5-7.5h39.358   c4.142,0,7.5,3.358,7.5,7.5S222.165,15,218.023,15z"/>
	<path style="fill:#0071CE;" d="M258.757,61.167c0-11-9-20-20-20h-80.828c-11,0-20,9-20,20v29.353c0,11,9,20,20,20h80.828   c11,0,20-9,20-20V61.167z"/>
	<path style="fill:#00B3E3;" d="M287.701,312.04c0-21.212-21.025-62.995-21.025-90.497c0-27.502,21.025-45.164,21.025-66.376   v-54.647c0-16.5-13.5-30-30-30H138.985c-16.5,0-30,13.5-30,30v54.647c0,21.212,21.025,38.874,21.025,66.376   c0,27.503-21.025,69.285-21.025,90.497v54.647c0,16.5,13.5,30,30,30h118.716c16.5,0,30-13.5,30-30V312.04z"/>
	<path style="fill:#0071CE;" d="M108.985,350.167v16.52c0,16.5,13.5,30,30,30h118.716c16.5,0,30-13.5,30-30v-16.52H108.985z"/>
	<polygon style="fill:#FFC843;" points="160.76,236.187 203.094,147.854 203.094,208.52 235.928,220.145 193.594,308.479    193.594,246.187  "/>
	<path style="fill:#0071CE;" d="M140.929,295h-29.228c-1.42,5.561-2.411,10.649-2.656,15h31.884c4.142,0,7.5-3.358,7.5-7.5   S145.071,295,140.929,295z M140.929,271.667h-22.233c-1.64,5.144-3.251,10.187-4.678,15h26.911c4.142,0,7.5-3.358,7.5-7.5   S145.071,271.667,140.929,271.667z M140.929,168c4.142,0,7.5-3.358,7.5-7.5c0-4.142-3.358-7.5-7.5-7.5h-31.944v2.166   c0,4.391,0.909,8.629,2.338,12.834H140.929z M140.929,248.333h-15.231c-1.307,4.947-2.807,9.984-4.368,15h19.6   c4.142,0,7.5-3.358,7.5-7.5C148.429,251.691,145.071,248.333,140.929,248.333z M140.929,199.667h-15.244   c1.786,4.71,3.198,9.671,3.877,15h11.367c4.142,0,7.5-3.358,7.5-7.5C148.429,203.025,145.071,199.667,140.929,199.667z    M140.929,176.333h-26.195c2.273,4.877,4.922,9.817,7.371,15h18.825c4.142,0,7.5-3.358,7.5-7.5S145.071,176.333,140.929,176.333z"/>
	<path style="fill:#0071CE;" d="M255.757,191.333h18.825c2.449-5.183,5.097-10.123,7.371-15h-26.195c-4.142,0-7.5,3.358-7.5,7.5   S251.615,191.333,255.757,191.333z M255.757,214.667h11.367c0.679-5.329,2.091-10.29,3.877-15h-15.244c-4.142,0-7.5,3.358-7.5,7.5   C248.257,211.309,251.615,214.667,255.757,214.667z M255.757,263.333h19.6c-1.561-5.016-3.062-10.053-4.368-15h-15.231   c-4.142,0-7.5,3.358-7.5,7.5C248.257,259.976,251.615,263.333,255.757,263.333z M255.757,153c-4.142,0-7.5,3.358-7.5,7.5   c0,4.142,3.358,7.5,7.5,7.5h29.606c1.429-4.205,2.338-8.443,2.338-12.834V153H255.757z M255.757,286.667h26.911   c-1.427-4.813-3.038-9.856-4.678-15h-22.233c-4.142,0-7.5,3.358-7.5,7.5S251.615,286.667,255.757,286.667z M255.757,295   c-4.142,0-7.5,3.358-7.5,7.5s3.358,7.5,7.5,7.5h31.884c-0.246-4.351-1.236-9.439-2.656-15H255.757z"/>
</g>















</svg>